<svg width="58" height="57" viewBox="0 0 58 57" fill="none" xmlns="http://www.w3.org/2000/svg">
<g clip-path="url(#clip0_18_139)">
<path d="M37.2646 21.6605L30.5163 33.1148C30.1612 33.1148 29.806 33.026 29.362 33.026C26.8758 33.026 24.9224 34.9794 24.9224 37.4656C24.9224 39.9518 26.8758 41.9052 29.362 41.9052C31.8482 41.9052 33.8017 39.9518 33.8017 37.4656C33.8017 36.0449 33.0913 34.8018 32.1146 34.0027L38.5965 22.9924C40.3723 25.0347 41.5266 27.6096 41.7042 30.451C41.7042 30.895 42.1482 31.2501 42.5921 31.2501H45.6111C46.055 31.2501 46.3214 30.9838 46.499 30.6286C46.943 29.1191 47.1205 27.5208 47.1205 25.9226C47.1205 16.1554 39.1292 8.16406 29.362 8.16406C19.5948 8.16406 11.6035 16.1554 11.6035 25.9226C11.6035 27.5208 11.7811 29.1191 12.2251 30.6286C12.3139 30.9838 12.669 31.2501 13.113 31.2501H16.0431C16.4871 31.2501 16.9311 30.895 16.9311 30.451C17.375 23.8803 22.7914 18.8192 29.362 18.8192C32.381 18.8192 35.1335 19.8847 37.2646 21.6605ZM29.362 40.1294C27.8526 40.1294 26.6983 38.9751 26.6983 37.4656C26.6983 35.9561 27.8526 34.8018 29.362 34.8018C30.8715 34.8018 32.0258 35.9561 32.0258 37.4656C32.0258 38.9751 30.8715 40.1294 29.362 40.1294ZM23.8569 18.1976L21.2819 12.2485C21.2819 12.2485 21.2819 12.1597 21.1931 12.1597C23.3241 10.9166 25.8103 10.1175 28.3853 9.93991V17.0433C26.8758 17.2209 25.2776 17.5761 23.8569 18.1976ZM30.25 17.0433V9.93991C32.9137 10.1175 35.3111 10.8278 37.4422 12.1597C37.4422 12.1597 37.4422 12.2485 37.3534 12.2485L34.7784 18.1976C33.4465 17.5761 31.8482 17.2209 30.25 17.0433ZM44.9895 29.4743H43.4801C43.2137 27.4321 42.5033 25.5674 41.5266 23.8804L44.7231 21.4829C45.1671 22.9036 45.3447 24.3243 45.3447 25.9226C45.3447 27.1657 45.1671 28.32 44.9895 29.4743ZM44.1016 19.7959C44.0128 19.7959 43.924 19.8847 43.924 19.8847L40.4611 22.4597C40.1947 22.1045 39.8396 21.7493 39.4844 21.3942L40.7275 19.2631C40.9939 18.8192 40.8163 18.2864 40.3723 18.02C39.9283 17.7537 39.3956 17.9312 39.1292 18.3752L38.0637 20.1511C37.5309 19.7071 36.9094 19.3519 36.3766 18.9968L38.8628 13.2252C41.2602 14.9123 43.0361 17.1321 44.1016 19.7959ZM15.244 29.4743H13.7345C13.4682 28.32 13.3794 27.1657 13.3794 25.9226C13.3794 24.4131 13.6457 22.9036 14.0009 21.4829L17.1974 23.8804C16.2207 25.5674 15.5104 27.4321 15.244 29.4743ZM18.263 22.4597L14.8 19.8847C14.7113 19.7959 14.7113 19.7959 14.6225 19.7959C15.688 17.1321 17.5526 14.9123 19.7724 13.1364L22.2586 18.908C20.6604 19.8847 19.3285 21.039 18.263 22.4597Z" fill="#A3C5FF"/>
<path d="M50.6724 42.7933H45.0784C49.6069 38.62 52.4482 32.5821 52.4482 25.9227C52.4482 13.2254 42.0595 2.83663 29.3622 2.83663C28.3854 2.83663 27.4087 2.92542 26.432 3.01421C25.7217 1.32715 24.1234 0.172852 22.2587 0.172852H21.3708C19.4174 0.172852 17.8191 1.77112 17.8191 3.72455C17.8191 4.4349 18.0855 5.05644 18.5295 5.50041C17.5527 6.03316 16.6648 6.56592 15.7769 7.27626H4.50023C3.96747 7.27626 3.6123 7.63143 3.6123 8.16418C3.6123 8.69694 3.96747 9.05211 4.50023 9.05211H13.6459C9.11744 13.2254 6.27608 19.2633 6.27608 25.9227C6.27608 38.62 16.6648 49.0088 29.3622 49.0088C34.4233 49.0088 39.1293 47.3217 42.9474 44.5691H50.6724C52.1818 44.5691 53.3361 45.7234 53.3361 47.2329C53.3361 48.7424 52.1818 49.8967 50.6724 49.8967H49.7844C48.8077 49.8967 48.0086 49.0976 48.0086 48.1208C48.0086 47.5881 48.3638 47.2329 48.8965 47.2329C49.4293 47.2329 49.7844 46.8777 49.7844 46.345C49.7844 45.8122 49.4293 45.4571 48.8965 45.4571C47.387 45.4571 46.2327 46.6114 46.2327 48.1208C46.2327 50.0743 47.831 51.6725 49.7844 51.6725H50.6724C53.1586 51.6725 55.112 49.7191 55.112 47.2329C55.112 44.7467 53.1586 42.7933 50.6724 42.7933ZM20.4829 4.61248C19.9501 4.61248 19.595 4.25731 19.595 3.72455C19.595 2.74784 20.3941 1.9487 21.3708 1.9487H22.2587C23.2355 1.9487 24.1234 2.48146 24.5674 3.36938C23.1467 3.63576 21.8148 4.07972 20.4829 4.61248ZM24.8337 5.05644C24.6561 6.29954 23.5906 7.27626 22.2587 7.27626H19.0622C20.8381 6.29954 22.7915 5.50041 24.8337 5.05644ZM29.3622 47.2329C17.6415 47.2329 8.05193 37.6433 8.05193 25.9227C8.05193 19.0857 11.3373 12.959 16.3984 9.05211H22.2587C24.6561 9.05211 26.6096 7.18746 26.6984 4.79007C27.5863 4.70127 28.4742 4.61248 29.3622 4.61248C41.0828 4.61248 50.6724 14.2021 50.6724 25.9227C50.6724 32.7597 47.387 38.8864 42.3259 42.7933H25.8104C25.2777 42.7933 24.9225 43.1485 24.9225 43.6812C24.9225 44.214 25.2777 44.5691 25.8104 44.5691H39.6621C36.6431 46.2562 33.0914 47.2329 29.3622 47.2329Z" fill="#A3C5FF"/>
</g>
<defs>
<clipPath id="clip0_18_139">
<rect width="56.8272" height="56.8272" fill="white" transform="translate(0.769531 0.172852)"/>
</clipPath>
</defs>
</svg>
