<svg width="50" height="50" viewBox="0 0 50 50" fill="none" xmlns="http://www.w3.org/2000/svg">
<path d="M16.5869 43.0909C9.59961 43.0909 3.91602 37.4073 3.91602 30.42C3.91602 23.9161 13.916 11.128 15.0586 9.69247C15.3418 9.33603 15.7666 9.12607 16.2207 9.12118C16.6797 9.1163 17.1045 9.31161 17.3975 9.65829C17.4707 9.74618 19.2383 11.8458 21.4111 14.795C21.9043 15.4688 21.7627 16.4161 21.0889 16.9093C20.415 17.4024 19.4678 17.2608 18.9746 16.587C17.9346 15.171 16.9775 13.9503 16.2744 13.0665C12.8955 17.5587 6.93848 26.3233 6.93848 30.42C6.93848 35.7374 11.2646 40.0684 16.5869 40.0684C21.9092 40.0684 26.2353 35.7374 26.2353 30.42C26.2353 29.585 26.9141 28.9063 27.749 28.9063C28.584 28.9063 29.2627 29.585 29.2627 30.42C29.2578 37.4073 23.5742 43.0909 16.5869 43.0909Z" fill="#A3C5FF"/>
<path d="M17.7588 22.8911C16.3965 25.8062 15.4736 28.5405 15.4736 30.6255C15.4736 38.6626 21.9873 45.1763 30.0244 45.1763C38.0615 45.1763 44.5752 38.6626 44.5752 30.6255C44.5752 30.0005 44.4824 29.312 44.3066 28.5796C28.3301 30.2349 30.3955 19.063 17.7588 22.8911Z" fill="#A3C5FF"/>
<path d="M16.2898 27.7148C14.4245 39.4287 22.2956 45.1807 30.3181 45.1807C34.8493 45.1807 37.3933 44.5898 40.0642 41.3428C27.2956 42.3535 19.1316 36.499 16.2898 27.7148Z" fill="#639CFF"/>
<path d="M30.0244 46.6847C21.167 46.6847 13.9648 39.4776 13.9648 30.6251C13.9648 22.1583 27.8027 4.629 28.3936 3.88681C28.6768 3.53036 29.1016 3.3204 29.5557 3.31552C30.0098 3.31064 30.4395 3.50595 30.7324 3.85263C30.8301 3.96493 33.125 6.69443 35.9473 10.5226C36.4404 11.1964 36.2988 12.1436 35.625 12.6368C34.9512 13.13 34.0039 12.9884 33.5107 12.3145C31.958 10.2052 30.5518 8.41806 29.6094 7.25107C25.2441 12.9933 16.9873 25.0147 16.9873 30.6251C16.9873 37.8126 22.8369 43.6622 30.0244 43.6622C37.2119 43.6622 43.0615 37.8126 43.0615 30.6251C43.0615 29.1749 42.417 26.3331 39.3311 21.045C38.9111 20.3224 39.1553 19.3995 39.8779 18.9796C40.6006 18.5597 41.5234 18.8038 41.9434 19.5265C44.7314 24.3067 46.084 27.9347 46.084 30.63C46.084 39.4825 38.877 46.6847 30.0244 46.6847Z" fill="#A3C5FF"/>
</svg>
