<svg width="66" height="66" viewBox="0 0 66 66" fill="none" xmlns="http://www.w3.org/2000/svg">
<g clip-path="url(#clip0_18_304)">
<path d="M60.6321 32.8555V25.9667C61.8009 25.6435 62.6648 24.5825 62.6648 23.3141C62.6648 21.7896 61.4249 20.5496 59.9004 20.5496C59.5121 20.5496 59.1442 20.6309 58.8088 20.7753L54.0015 14.7667C54.3329 14.3113 54.5341 13.7544 54.5341 13.1486C54.5341 11.6241 53.2942 10.3842 51.7696 10.3842C50.9545 10.3842 50.2289 10.744 49.7227 11.307L42.2851 7.58721C42.3197 7.41443 42.338 7.23556 42.338 7.05058C42.338 5.52607 41.098 4.28613 39.5735 4.28613C38.3031 4.28613 37.242 5.15002 36.9188 6.31882H27.9974C27.6742 5.15002 26.6131 4.28613 25.3447 4.28613C23.8202 4.28613 22.5803 5.52607 22.5803 7.05058C22.5803 7.23556 22.6006 7.41443 22.6352 7.58721L17.2282 10.2907C16.7221 9.72966 15.9964 9.36784 15.1813 9.36784C13.6568 9.36784 12.4169 10.6078 12.4169 12.1323C12.4169 12.6872 12.5836 13.2015 12.8661 13.6344L8.26613 18.8097C7.89821 18.6267 7.48964 18.5149 7.05058 18.5149C5.52607 18.5149 4.28613 19.7549 4.28613 21.2794C4.28613 22.5498 5.15002 23.6088 6.31882 23.932V30.8208C5.15002 31.144 4.28613 32.2051 4.28613 33.4734C4.28613 34.998 5.52607 36.2379 7.05058 36.2379C8.16043 36.2379 9.11173 35.5773 9.55282 34.63L16.5127 35.7907C16.6571 37.1831 17.8197 38.2726 19.2467 38.2726C19.4317 38.2726 19.6105 38.2523 19.7833 38.2177L21.4704 41.59C20.9094 42.0981 20.5476 42.8238 20.5476 43.6389C20.5476 45.1634 21.7875 46.4034 23.3121 46.4034C24.2674 46.4034 25.111 45.9155 25.609 45.1756L32.76 47.56C32.7559 47.6087 32.7437 47.6555 32.7437 47.7043C32.7437 48.9747 33.6076 50.0358 34.7764 50.359V57.2457C33.6076 57.5689 32.7437 58.6299 32.7437 59.9004C32.7437 61.4249 33.9837 62.6648 35.5082 62.6648C37.0327 62.6648 38.2726 61.4249 38.2726 59.9004C38.2726 58.632 37.4087 57.5689 36.2399 57.2457V50.3569C37.4087 50.0337 38.2726 48.9727 38.2726 47.7022C38.2726 46.7835 37.8173 45.9745 37.1262 45.4703L38.5125 41.7709L44.9419 43.6084C44.9419 43.6186 44.9398 43.6287 44.9398 43.6389C44.9398 44.9073 45.8037 45.9704 46.9725 46.2936V57.2477C45.8037 57.5709 44.9398 58.632 44.9398 59.9024C44.9398 61.4269 46.1798 62.6669 47.7043 62.6669C49.2288 62.6669 50.4687 61.4269 50.4687 59.9024C50.4687 58.634 49.6048 57.5709 48.436 57.2477V46.2936C49.6048 45.9704 50.4687 44.9093 50.4687 43.6389C50.4687 43.336 50.4077 43.0494 50.3183 42.777L58.0994 37.5876C58.5852 38.0104 59.2093 38.2726 59.9004 38.2726C61.4249 38.2726 62.6648 37.0327 62.6648 35.5082C62.6648 34.2398 61.8009 33.1787 60.6321 32.8555ZM44.3585 31.3046C44.3544 31.2131 44.3442 31.1216 44.33 31.0322L50.5277 28.2779L57.262 34.1707L44.3585 31.3046ZM41.6062 32.7437C40.8887 32.7437 40.3053 32.1603 40.3053 31.4428C40.3053 30.7253 40.8887 30.1419 41.6062 30.1419C42.3238 30.1419 42.9071 30.7253 42.9071 31.4428C42.9071 32.1603 42.3238 32.7437 41.6062 32.7437ZM41.6062 28.6783C40.0817 28.6783 38.8418 29.9183 38.8418 31.4428C38.8418 32.3616 39.2971 33.1706 39.9882 33.6726L37.6181 39.9943L33.7519 38.8906L30.774 28.471L41.8786 20.8362L43.1551 21.8302L49.3101 27.2168L43.7304 29.6967C43.2242 29.0808 42.466 28.6783 41.6062 28.6783ZM19.513 32.7701L17.462 20.9745L24.804 20.2407V20.2325C25.2025 21.2692 26.2005 22.0111 27.3774 22.0111C27.3876 22.0111 27.3957 22.0091 27.4059 22.0091L29.0788 27.8612L21.0172 33.4023C20.6005 33.0527 20.0842 32.8271 19.513 32.7701ZM27.3774 20.5476C26.6599 20.5476 26.0765 19.9642 26.0765 19.2467C26.0765 18.5292 26.6599 17.9458 27.3774 17.9458C28.095 17.9458 28.6783 18.5292 28.6783 19.2467C28.6783 19.9642 28.095 20.5476 27.3774 20.5476ZM21.8485 34.6077L29.5016 29.3451L32.0933 38.4169L22.0071 35.5346C22.0071 35.5244 22.0091 35.5163 22.0091 35.5061C22.0111 35.1911 21.9461 34.8923 21.8485 34.6077ZM49.9992 15.2545C50.4809 15.659 51.0928 15.9131 51.7696 15.9131C52.1579 15.9131 52.5258 15.8318 52.8612 15.6875L57.6685 21.694C57.3372 22.1494 57.1359 22.7063 57.1359 23.3121C57.1359 23.4523 57.1563 23.5865 57.1766 23.7206L50.7858 26.5603L44.0881 20.7001L43.145 19.9663L49.9992 15.2545ZM58.3779 33.2031L51.9993 27.6234L57.7742 25.0581C58.1319 25.4911 58.6117 25.8123 59.1686 25.9647V32.8535C58.8861 32.9328 58.6178 33.0466 58.3779 33.2031ZM61.2013 23.3121C61.2013 24.0296 60.6179 24.613 59.9004 24.613C59.1828 24.613 58.5995 24.0296 58.5995 23.3121C58.5995 22.5945 59.1828 22.0111 59.9004 22.0111C60.6179 22.0111 61.2013 22.5945 61.2013 23.3121ZM51.7696 11.8477C52.4872 11.8477 53.0706 12.4311 53.0706 13.1486C53.0706 13.8662 52.4872 14.4496 51.7696 14.4496C51.0521 14.4496 50.4687 13.8662 50.4687 13.1486C50.4687 12.4311 51.0521 11.8477 51.7696 11.8477ZM39.5735 5.74967C40.2911 5.74967 40.8745 6.33305 40.8745 7.05058C40.8745 7.76812 40.2911 8.3515 39.5735 8.3515C38.856 8.3515 38.2726 7.76812 38.2726 7.05058C38.2726 6.33305 38.856 5.74967 39.5735 5.74967ZM39.5735 9.81503C40.3886 9.81503 41.1143 9.45525 41.6204 8.8922L49.058 12.612C49.0235 12.7848 49.0052 12.9637 49.0052 13.1486C49.0052 13.4657 49.0702 13.7645 49.1678 14.0491L41.9314 19.0251L27.8978 8.10961C27.9405 8.00594 27.9689 7.89415 27.9994 7.78235H36.9209C37.242 8.95114 38.3031 9.81503 39.5735 9.81503ZM25.3447 5.74967C26.0623 5.74967 26.6457 6.33305 26.6457 7.05058C26.6457 7.76812 26.0623 8.3515 25.3447 8.3515C24.6272 8.3515 24.0438 7.76812 24.0438 7.05058C24.0438 6.33305 24.6272 5.74967 25.3447 5.74967ZM23.2978 8.8922C23.804 9.45322 24.5296 9.81503 25.3447 9.81503C25.9627 9.81503 26.5298 9.60364 26.9912 9.25808L40.6671 19.8931L30.3512 26.9851L28.8125 21.5985C29.6052 21.1127 30.1419 20.2447 30.1419 19.2467C30.1419 17.7222 28.9019 16.4822 27.3774 16.4822C26.0094 16.4822 24.8793 17.4823 24.6597 18.7893V18.7832L17.2099 19.5272L16.3562 14.6244C17.2933 14.1812 17.9458 13.234 17.9458 12.1323C17.9458 11.9473 17.9254 11.7684 17.8909 11.5957L23.2978 8.8922ZM9.62193 20.2854C9.55282 20.1065 9.46948 19.9358 9.36581 19.7772L13.9658 14.602C14.2564 14.7463 14.5756 14.8358 14.915 14.8703L15.7505 19.6736L9.62193 20.2854ZM15.1813 10.8314C15.8989 10.8314 16.4822 11.4148 16.4822 12.1323C16.4822 12.8498 15.8989 13.4332 15.1813 13.4332C14.4638 13.4332 13.8804 12.8498 13.8804 12.1323C13.8804 11.4148 14.4638 10.8314 15.1813 10.8314ZM5.74967 21.2794C5.74967 20.5618 6.33305 19.9785 7.05058 19.9785C7.76812 19.9785 8.3515 20.5618 8.3515 21.2794C8.3515 21.9969 7.76812 22.5803 7.05058 22.5803C6.33305 22.5803 5.74967 21.9969 5.74967 21.2794ZM7.05058 34.7764C6.33305 34.7764 5.74967 34.193 5.74967 33.4755C5.74967 32.7579 6.33305 32.1746 7.05058 32.1746C7.76812 32.1746 8.3515 32.7579 8.3515 33.4755C8.3515 34.193 7.76812 34.7764 7.05058 34.7764ZM16.7445 34.3495L9.78454 33.1889C9.66462 32.0485 8.85967 31.1196 7.78032 30.8208V23.932C8.80276 23.6495 9.58534 22.8019 9.76625 21.7428L16.0005 21.1188L18.0698 33.0161C17.4884 33.2925 17.0189 33.7641 16.7445 34.3495ZM17.9458 35.5082C17.9458 34.7906 18.5292 34.2072 19.2467 34.2072C19.9642 34.2072 20.5476 34.7906 20.5476 35.5082C20.5476 36.2257 19.9642 36.8091 19.2467 36.8091C18.5292 36.8091 17.9458 36.2257 17.9458 35.5082ZM23.3121 44.9398C22.5945 44.9398 22.0111 44.3564 22.0111 43.6389C22.0111 42.9214 22.5945 42.338 23.3121 42.338C24.0296 42.338 24.613 42.9214 24.613 43.6389C24.613 44.3564 24.0296 44.9398 23.3121 44.9398ZM26.0623 43.7832C26.0643 43.7344 26.0765 43.6877 26.0765 43.6389C26.0765 42.1144 24.8366 40.8745 23.3121 40.8745C23.1271 40.8745 22.9482 40.8948 22.7754 40.9293L21.0883 37.5571C21.2875 37.3782 21.4582 37.1729 21.5985 36.9432L32.5669 40.0756L34.0751 45.3525C33.7336 45.5618 33.4348 45.8362 33.2112 46.1696L26.0623 43.7832ZM36.8091 59.9004C36.8091 60.6179 36.2257 61.2013 35.5082 61.2013C34.7906 61.2013 34.2072 60.6179 34.2072 59.9004C34.2072 59.1828 34.7906 58.5995 35.5082 58.5995C36.2257 58.5995 36.8091 59.1828 36.8091 59.9004ZM35.5082 49.0052C34.7906 49.0052 34.2072 48.4218 34.2072 47.7043C34.2072 46.9867 34.7906 46.4034 35.5082 46.4034C36.2257 46.4034 36.8091 46.9867 36.8091 47.7043C36.8091 48.4218 36.2257 49.0052 35.5082 49.0052ZM35.7541 44.9642C35.6708 44.9561 35.5915 44.9398 35.5082 44.9398C35.498 44.9398 35.4899 44.9419 35.4797 44.9419L34.2235 40.5472L37.1018 41.3684L35.7541 44.9642ZM39.0288 40.3988L41.3603 34.1808C41.4436 34.189 41.5229 34.2052 41.6062 34.2052C42.6612 34.2052 43.5718 33.6035 44.0373 32.7315L57.1502 35.6444C57.1623 35.8964 57.2111 36.1383 57.2884 36.368L49.5073 41.5574C49.0194 41.1367 48.3954 40.8745 47.7043 40.8745C46.7062 40.8745 45.8383 41.4111 45.3504 42.2059L39.0288 40.3988ZM49.0052 59.9004C49.0052 60.6179 48.4218 61.2013 47.7043 61.2013C46.9867 61.2013 46.4034 60.6179 46.4034 59.9004C46.4034 59.1828 46.9867 58.5995 47.7043 58.5995C48.4218 58.5995 49.0052 59.1828 49.0052 59.9004ZM47.7043 44.9398C46.9867 44.9398 46.4034 44.3564 46.4034 43.6389C46.4034 42.9214 46.9867 42.338 47.7043 42.338C48.4218 42.338 49.0052 42.9214 49.0052 43.6389C49.0052 44.3564 48.4218 44.9398 47.7043 44.9398ZM59.9004 36.8091C59.1828 36.8091 58.5995 36.2257 58.5995 35.5082C58.5995 34.7906 59.1828 34.2072 59.9004 34.2072C60.6179 34.2072 61.2013 34.7906 61.2013 35.5082C61.2013 36.2257 60.6179 36.8091 59.9004 36.8091Z" fill="black"/>
</g>
<defs>
<clipPath id="clip0_18_304">
<rect width="65.0459" height="65.0459" fill="white" transform="translate(0.954102 0.954102)"/>
</clipPath>
</defs>
</svg>
