<svg width="107" height="107" viewBox="0 0 107 107" fill="none" xmlns="http://www.w3.org/2000/svg">
<rect x="2" y="2" width="103.232" height="103.232" rx="10.2098" fill="#E3E5FF"/>
<rect x="2" y="2" width="103.232" height="103.232" rx="10.2098" stroke="#639CFF" stroke-width="3"/>
<g clip-path="url(#clip0_18_310)">
<path d="M81.6321 53.8555V46.9667C82.8009 46.6435 83.6648 45.5825 83.6648 44.3141C83.6648 42.7896 82.4249 41.5496 80.9004 41.5496C80.5121 41.5496 80.1442 41.6309 79.8088 41.7753L75.0015 35.7667C75.3329 35.3113 75.5341 34.7544 75.5341 34.1486C75.5341 32.6241 74.2942 31.3842 72.7696 31.3842C71.9545 31.3842 71.2289 31.744 70.7227 32.307L63.2851 28.5872C63.3197 28.4144 63.338 28.2356 63.338 28.0506C63.338 26.5261 62.098 25.2861 60.5735 25.2861C59.3031 25.2861 58.242 26.15 57.9188 27.3188H48.9974C48.6742 26.15 47.6131 25.2861 46.3447 25.2861C44.8202 25.2861 43.5803 26.5261 43.5803 28.0506C43.5803 28.2356 43.6006 28.4144 43.6352 28.5872L38.2282 31.2907C37.7221 30.7297 36.9964 30.3678 36.1813 30.3678C34.6568 30.3678 33.4169 31.6078 33.4169 33.1323C33.4169 33.6872 33.5836 34.2015 33.8661 34.6344L29.2661 39.8097C28.8982 39.6267 28.4896 39.5149 28.0506 39.5149C26.5261 39.5149 25.2861 40.7549 25.2861 42.2794C25.2861 43.5498 26.15 44.6088 27.3188 44.932V51.8208C26.15 52.144 25.2861 53.2051 25.2861 54.4734C25.2861 55.998 26.5261 57.2379 28.0506 57.2379C29.1604 57.2379 30.1117 56.5773 30.5528 55.63L37.5127 56.7907C37.6571 58.1831 38.8197 59.2726 40.2467 59.2726C40.4317 59.2726 40.6105 59.2523 40.7833 59.2177L42.4704 62.59C41.9094 63.0981 41.5476 63.8238 41.5476 64.6389C41.5476 66.1634 42.7875 67.4034 44.3121 67.4034C45.2674 67.4034 46.111 66.9155 46.609 66.1756L53.76 68.56C53.7559 68.6087 53.7437 68.6555 53.7437 68.7043C53.7437 69.9747 54.6076 71.0358 55.7764 71.359V78.2457C54.6076 78.5689 53.7437 79.6299 53.7437 80.9004C53.7437 82.4249 54.9837 83.6648 56.5082 83.6648C58.0327 83.6648 59.2726 82.4249 59.2726 80.9004C59.2726 79.632 58.4087 78.5689 57.2399 78.2457V71.3569C58.4087 71.0337 59.2726 69.9727 59.2726 68.7022C59.2726 67.7835 58.8173 66.9745 58.1262 66.4703L59.5125 62.7709L65.9419 64.6084C65.9419 64.6186 65.9398 64.6287 65.9398 64.6389C65.9398 65.9073 66.8037 66.9704 67.9725 67.2936V78.2477C66.8037 78.5709 65.9398 79.632 65.9398 80.9024C65.9398 82.4269 67.1798 83.6669 68.7043 83.6669C70.2288 83.6669 71.4687 82.4269 71.4687 80.9024C71.4687 79.634 70.6048 78.5709 69.436 78.2477V67.2936C70.6048 66.9704 71.4687 65.9093 71.4687 64.6389C71.4687 64.336 71.4077 64.0494 71.3183 63.777L79.0994 58.5876C79.5852 59.0104 80.2093 59.2726 80.9004 59.2726C82.4249 59.2726 83.6648 58.0327 83.6648 56.5082C83.6648 55.2398 82.8009 54.1787 81.6321 53.8555ZM65.3585 52.3046C65.3544 52.2131 65.3442 52.1216 65.33 52.0322L71.5277 49.2779L78.262 55.1707L65.3585 52.3046ZM62.6062 53.7437C61.8887 53.7437 61.3053 53.1603 61.3053 52.4428C61.3053 51.7253 61.8887 51.1419 62.6062 51.1419C63.3238 51.1419 63.9071 51.7253 63.9071 52.4428C63.9071 53.1603 63.3238 53.7437 62.6062 53.7437ZM62.6062 49.6783C61.0817 49.6783 59.8418 50.9183 59.8418 52.4428C59.8418 53.3616 60.2971 54.1706 60.9882 54.6726L58.6181 60.9943L54.7519 59.8906L51.774 49.471L62.8786 41.8362L64.1551 42.8302L70.3101 48.2168L64.7304 50.6967C64.2242 50.0808 63.466 49.6783 62.6062 49.6783ZM40.513 53.7701L38.462 41.9745L45.804 41.2407V41.2325C46.2025 42.2692 47.2005 43.0111 48.3774 43.0111C48.3876 43.0111 48.3957 43.0091 48.4059 43.0091L50.0788 48.8612L42.0172 54.4023C41.6005 54.0527 41.0842 53.8271 40.513 53.7701ZM48.3774 41.5476C47.6599 41.5476 47.0765 40.9642 47.0765 40.2467C47.0765 39.5292 47.6599 38.9458 48.3774 38.9458C49.095 38.9458 49.6783 39.5292 49.6783 40.2467C49.6783 40.9642 49.095 41.5476 48.3774 41.5476ZM42.8485 55.6077L50.5016 50.3451L53.0933 59.4169L43.0071 56.5346C43.0071 56.5244 43.0091 56.5163 43.0091 56.5061C43.0111 56.1911 42.9461 55.8923 42.8485 55.6077ZM70.9992 36.2545C71.4809 36.659 72.0928 36.9131 72.7696 36.9131C73.1579 36.9131 73.5258 36.8318 73.8612 36.6875L78.6685 42.694C78.3372 43.1494 78.1359 43.7063 78.1359 44.3121C78.1359 44.4523 78.1563 44.5865 78.1766 44.7206L71.7858 47.5603L65.0881 41.7001L64.145 40.9663L70.9992 36.2545ZM79.3779 54.2031L72.9993 48.6234L78.7742 46.0581C79.1319 46.4911 79.6117 46.8123 80.1686 46.9647V53.8535C79.8861 53.9328 79.6178 54.0466 79.3779 54.2031ZM82.2013 44.3121C82.2013 45.0296 81.6179 45.613 80.9004 45.613C80.1828 45.613 79.5995 45.0296 79.5995 44.3121C79.5995 43.5945 80.1828 43.0111 80.9004 43.0111C81.6179 43.0111 82.2013 43.5945 82.2013 44.3121ZM72.7696 32.8477C73.4872 32.8477 74.0706 33.4311 74.0706 34.1486C74.0706 34.8662 73.4872 35.4496 72.7696 35.4496C72.0521 35.4496 71.4687 34.8662 71.4687 34.1486C71.4687 33.4311 72.0521 32.8477 72.7696 32.8477ZM60.5735 26.7497C61.2911 26.7497 61.8745 27.333 61.8745 28.0506C61.8745 28.7681 61.2911 29.3515 60.5735 29.3515C59.856 29.3515 59.2726 28.7681 59.2726 28.0506C59.2726 27.333 59.856 26.7497 60.5735 26.7497ZM60.5735 30.815C61.3886 30.815 62.1143 30.4552 62.6204 29.8922L70.058 33.612C70.0235 33.7848 70.0052 33.9637 70.0052 34.1486C70.0052 34.4657 70.0702 34.7645 70.1678 35.0491L62.9314 40.0251L48.8978 29.1096C48.9405 29.0059 48.9689 28.8941 48.9994 28.7823H57.9209C58.242 29.9511 59.3031 30.815 60.5735 30.815ZM46.3447 26.7497C47.0623 26.7497 47.6457 27.333 47.6457 28.0506C47.6457 28.7681 47.0623 29.3515 46.3447 29.3515C45.6272 29.3515 45.0438 28.7681 45.0438 28.0506C45.0438 27.333 45.6272 26.7497 46.3447 26.7497ZM44.2978 29.8922C44.804 30.4532 45.5296 30.815 46.3447 30.815C46.9627 30.815 47.5298 30.6036 47.9912 30.2581L61.6671 40.8931L51.3512 47.9851L49.8125 42.5985C50.6052 42.1127 51.1419 41.2447 51.1419 40.2467C51.1419 38.7222 49.9019 37.4822 48.3774 37.4822C47.0094 37.4822 45.8793 38.4823 45.6597 39.7893V39.7832L38.2099 40.5272L37.3562 35.6244C38.2933 35.1812 38.9458 34.234 38.9458 33.1323C38.9458 32.9473 38.9254 32.7684 38.8909 32.5957L44.2978 29.8922ZM30.6219 41.2854C30.5528 41.1065 30.4695 40.9358 30.3658 40.7772L34.9658 35.602C35.2564 35.7463 35.5756 35.8358 35.915 35.8703L36.7505 40.6736L30.6219 41.2854ZM36.1813 31.8314C36.8989 31.8314 37.4822 32.4148 37.4822 33.1323C37.4822 33.8498 36.8989 34.4332 36.1813 34.4332C35.4638 34.4332 34.8804 33.8498 34.8804 33.1323C34.8804 32.4148 35.4638 31.8314 36.1813 31.8314ZM26.7497 42.2794C26.7497 41.5618 27.333 40.9785 28.0506 40.9785C28.7681 40.9785 29.3515 41.5618 29.3515 42.2794C29.3515 42.9969 28.7681 43.5803 28.0506 43.5803C27.333 43.5803 26.7497 42.9969 26.7497 42.2794ZM28.0506 55.7764C27.333 55.7764 26.7497 55.193 26.7497 54.4755C26.7497 53.7579 27.333 53.1746 28.0506 53.1746C28.7681 53.1746 29.3515 53.7579 29.3515 54.4755C29.3515 55.193 28.7681 55.7764 28.0506 55.7764ZM37.7445 55.3495L30.7845 54.1889C30.6646 53.0485 29.8597 52.1196 28.7803 51.8208V44.932C29.8028 44.6495 30.5853 43.8019 30.7663 42.7428L37.0005 42.1188L39.0698 54.0161C38.4884 54.2925 38.0189 54.7641 37.7445 55.3495ZM38.9458 56.5082C38.9458 55.7906 39.5292 55.2072 40.2467 55.2072C40.9642 55.2072 41.5476 55.7906 41.5476 56.5082C41.5476 57.2257 40.9642 57.8091 40.2467 57.8091C39.5292 57.8091 38.9458 57.2257 38.9458 56.5082ZM44.3121 65.9398C43.5945 65.9398 43.0111 65.3564 43.0111 64.6389C43.0111 63.9214 43.5945 63.338 44.3121 63.338C45.0296 63.338 45.613 63.9214 45.613 64.6389C45.613 65.3564 45.0296 65.9398 44.3121 65.9398ZM47.0623 64.7832C47.0643 64.7344 47.0765 64.6877 47.0765 64.6389C47.0765 63.1144 45.8366 61.8745 44.3121 61.8745C44.1271 61.8745 43.9482 61.8948 43.7754 61.9293L42.0883 58.5571C42.2875 58.3782 42.4582 58.1729 42.5985 57.9432L53.5669 61.0756L55.0751 66.3525C54.7336 66.5618 54.4348 66.8362 54.2112 67.1696L47.0623 64.7832ZM57.8091 80.9004C57.8091 81.6179 57.2257 82.2013 56.5082 82.2013C55.7906 82.2013 55.2072 81.6179 55.2072 80.9004C55.2072 80.1828 55.7906 79.5995 56.5082 79.5995C57.2257 79.5995 57.8091 80.1828 57.8091 80.9004ZM56.5082 70.0052C55.7906 70.0052 55.2072 69.4218 55.2072 68.7043C55.2072 67.9867 55.7906 67.4034 56.5082 67.4034C57.2257 67.4034 57.8091 67.9867 57.8091 68.7043C57.8091 69.4218 57.2257 70.0052 56.5082 70.0052ZM56.7541 65.9642C56.6708 65.9561 56.5915 65.9398 56.5082 65.9398C56.498 65.9398 56.4899 65.9419 56.4797 65.9419L55.2235 61.5472L58.1018 62.3684L56.7541 65.9642ZM60.0288 61.3988L62.3603 55.1808C62.4436 55.189 62.5229 55.2052 62.6062 55.2052C63.6612 55.2052 64.5718 54.6035 65.0373 53.7315L78.1502 56.6444C78.1623 56.8964 78.2111 57.1383 78.2884 57.368L70.5073 62.5574C70.0194 62.1367 69.3954 61.8745 68.7043 61.8745C67.7062 61.8745 66.8383 62.4111 66.3504 63.2059L60.0288 61.3988ZM70.0052 80.9004C70.0052 81.6179 69.4218 82.2013 68.7043 82.2013C67.9867 82.2013 67.4034 81.6179 67.4034 80.9004C67.4034 80.1828 67.9867 79.5995 68.7043 79.5995C69.4218 79.5995 70.0052 80.1828 70.0052 80.9004ZM68.7043 65.9398C67.9867 65.9398 67.4034 65.3564 67.4034 64.6389C67.4034 63.9214 67.9867 63.338 68.7043 63.338C69.4218 63.338 70.0052 63.9214 70.0052 64.6389C70.0052 65.3564 69.4218 65.9398 68.7043 65.9398ZM80.9004 57.8091C80.1828 57.8091 79.5995 57.2257 79.5995 56.5082C79.5995 55.7906 80.1828 55.2072 80.9004 55.2072C81.6179 55.2072 82.2013 55.7906 82.2013 56.5082C82.2013 57.2257 81.6179 57.8091 80.9004 57.8091Z" fill="black"/>
</g>
<defs>
<clipPath id="clip0_18_310">
<rect width="65.0459" height="65.0459" fill="white" transform="translate(21.9541 21.9541)"/>
</clipPath>
</defs>
</svg>
