<svg width="52" height="52" viewBox="0 0 52 52" fill="none" xmlns="http://www.w3.org/2000/svg">
<path d="M32.1313 7.44531C31.6778 7.44531 31.3103 7.81297 31.3103 8.26634V11.3863H27.6977V8.26634C27.6977 7.81287 27.3302 7.44531 26.8767 7.44531C26.4231 7.44531 26.0557 7.81297 26.0557 8.26634V16.5863C26.0557 17.0398 26.4231 17.4074 26.8767 17.4074C27.3303 17.4074 27.6977 17.0397 27.6977 16.5863V13.0284H31.3103V16.5863C31.3103 17.0398 31.6778 17.4074 32.1313 17.4074C32.5849 17.4074 32.9524 17.0397 32.9524 16.5863V8.26634C32.9524 7.81287 32.5849 7.44531 32.1313 7.44531Z" fill="#A3C5FF"/>
<path d="M24.2479 7.44434H19.8689C19.4153 7.44434 19.0479 7.81199 19.0479 8.26537V12.2064V16.5854C19.0479 17.0388 19.4153 17.4064 19.8689 17.4064C20.3225 17.4064 20.6899 17.0387 20.6899 16.5854V13.0274H24.2479C24.7014 13.0274 25.0689 12.6598 25.0689 12.2064V8.26537C25.0689 7.81189 24.7013 7.44434 24.2479 7.44434ZM23.4267 11.3854H20.6899V9.0864H23.4267V11.3854Z" fill="#A3C5FF"/>
<path d="M38.6994 0H13.3015C12.8479 0 12.4805 0.367656 12.4805 0.821031V6.29474C12.4805 6.74822 12.8479 7.11577 13.3015 7.11577C13.7551 7.11577 14.1225 6.74812 14.1225 6.29474V1.64216H37.8783V23.645L30.52 29.7768H21.4809L14.1225 23.6449V10.0168C14.1225 9.56333 13.7551 9.19577 13.3015 9.19577C12.8479 9.19577 12.4805 9.56343 12.4805 10.0168V24.0295C12.4805 24.2731 12.5886 24.5043 12.7758 24.6603L20.3625 30.9826V43.2969C20.3625 43.7504 20.7301 44.1179 21.1836 44.1179H22.1141V51.179C22.1141 51.6324 22.4815 52 22.9351 52H29.0656C29.5192 52 29.8867 51.6323 29.8867 51.179V44.1179H30.8172C31.2707 44.1179 31.6382 43.7503 31.6382 43.2969V30.9825L39.2249 24.6602C39.4121 24.5042 39.5203 24.2731 39.5203 24.0294V0.821031C39.5205 0.367656 39.153 0 38.6994 0ZM28.2447 50.3579H23.7562V44.1179H28.2447V50.3579ZM29.9962 42.4758H22.0047V31.419H29.9962V42.4758Z" fill="#A3C5FF"/>
<path d="M35.196 3.94043H16.8044C16.3509 3.94043 15.9834 4.30809 15.9834 4.76146V20.0877C15.9834 20.5412 16.351 20.9088 16.8044 20.9088H35.196C35.6496 20.9088 36.017 20.5411 36.017 20.0877V4.76146C36.017 4.30809 35.6496 3.94043 35.196 3.94043ZM34.3749 19.2667H17.6255V5.58259H34.3749V19.2667Z" fill="#A3C5FF"/>
<path d="M21.8394 21.8945C20.3001 21.8945 19.0479 23.1468 19.0479 24.6861C19.0479 26.2254 20.3001 27.4776 21.8394 27.4776C23.3787 27.4776 24.6309 26.2254 24.6309 24.6861C24.6309 23.1468 23.3787 21.8945 21.8394 21.8945ZM21.8394 25.8356C21.2055 25.8356 20.6899 25.3199 20.6899 24.6861C20.6899 24.0522 21.2055 23.5366 21.8394 23.5366C22.4732 23.5366 22.9889 24.0522 22.9889 24.6861C22.9889 25.3199 22.4732 25.8356 21.8394 25.8356Z" fill="#A3C5FF"/>
<path d="M30.1607 21.8936C28.6214 21.8936 27.3691 23.1458 27.3691 24.6851C27.3691 26.2244 28.6214 27.4766 30.1607 27.4766C31.7 27.4766 32.9522 26.2244 32.9522 24.6851C32.9522 23.1458 31.7 21.8936 30.1607 21.8936ZM30.1607 25.8346C29.5268 25.8346 29.0112 25.319 29.0112 24.6851C29.0112 24.0513 29.5268 23.5356 30.1607 23.5356C30.7945 23.5356 31.3102 24.0513 31.3102 24.6851C31.3102 25.319 30.7945 25.8346 30.1607 25.8346Z" fill="#A3C5FF"/>
<path d="M27.7517 35.9521C27.2981 35.9521 26.9307 36.3198 26.9307 36.7732V39.7932C26.9307 40.2467 27.2981 40.6143 27.7517 40.6143C28.2053 40.6143 28.5727 40.2466 28.5727 39.7932V36.7732C28.5728 36.3197 28.2053 35.9521 27.7517 35.9521Z" fill="#A3C5FF"/>
<path d="M27.7517 32.8418C27.2981 32.8418 26.9307 33.2095 26.9307 33.6628V34.5272C26.9307 34.9807 27.2981 35.3483 27.7517 35.3483C28.2053 35.3483 28.5727 34.9806 28.5727 34.5272V33.6628C28.5728 33.2095 28.2053 32.8418 27.7517 32.8418Z" fill="#A3C5FF"/>
</svg>
