<svg width="98" height="99" viewBox="0 0 98 99" fill="none" xmlns="http://www.w3.org/2000/svg">
<path d="M49.0002 0.958984C39.3309 0.958984 29.8788 3.82627 21.839 9.19825C13.7993 14.5702 7.53308 22.2056 3.83279 31.1389C0.132511 40.0722 -0.835652 49.9021 1.05074 59.3856C2.93712 68.8691 7.59334 77.5803 14.4306 84.4175C21.2678 91.2548 29.979 95.911 39.4625 97.7974C48.946 99.6838 58.7759 98.7156 67.7092 95.0153C76.6425 91.315 84.2779 85.0488 89.6499 77.0091C95.0218 68.9693 97.8891 59.5172 97.8891 49.8479C97.8891 36.8817 92.7383 24.4467 83.5699 15.2782C74.4015 6.10976 61.9664 0.958984 49.0002 0.958984ZM49.0002 92.6256C40.5396 92.6256 32.2689 90.1168 25.2342 85.4163C18.1994 80.7158 12.7165 74.0348 9.47873 66.2182C6.24098 58.4016 5.39383 49.8004 7.04442 41.5023C8.69501 33.2043 12.7692 25.582 18.7518 19.5994C24.7344 13.6168 32.3566 9.54265 40.6547 7.89206C48.9528 6.24147 57.554 7.08861 65.3706 10.3264C73.1872 13.5641 79.8682 19.047 84.5687 26.0818C89.2691 33.1166 91.778 41.3872 91.778 49.8479C91.778 61.1932 87.2711 72.0739 79.2487 80.0963C71.2263 88.1187 60.3456 92.6256 49.0002 92.6256Z" fill="#639CFF"/>
<path d="M70.8779 43.9805C73.9155 43.9805 76.3779 41.518 76.3779 38.4805C76.3779 35.4429 73.9155 32.9805 70.8779 32.9805C67.8404 32.9805 65.3779 35.4429 65.3779 38.4805C65.3779 41.518 67.8404 43.9805 70.8779 43.9805Z" fill="#639CFF"/>
<path d="M28.8643 43.9805C31.9018 43.9805 34.3643 41.518 34.3643 38.4805C34.3643 35.4429 31.9018 32.9805 28.8643 32.9805C25.8267 32.9805 23.3643 35.4429 23.3643 38.4805C23.3643 41.518 25.8267 43.9805 28.8643 43.9805Z" fill="#639CFF"/>
<path d="M49.4898 55.959C45.1063 55.9597 40.7864 57.0084 36.8904 59.0175C32.9944 61.0267 29.6351 63.9381 27.0926 67.509C26.6226 68.1694 26.4342 68.9896 26.5688 69.789C26.7035 70.5883 27.1502 71.3015 27.8107 71.7715C28.4711 72.2415 29.2913 72.4299 30.0906 72.2953C30.89 72.1606 31.6031 71.7139 32.0732 71.0534C34.0269 68.3093 36.6011 66.0654 39.5863 64.5045C42.5714 62.9436 45.883 62.1098 49.2514 62.0711C52.6197 62.0324 55.9496 62.7898 58.9699 64.2817C61.9901 65.7735 64.6152 67.9577 66.6315 70.6562C67.1177 71.3045 67.8416 71.7331 68.6438 71.8477C69.4461 71.9623 70.261 71.7535 70.9093 71.2673C71.5576 70.7811 71.9862 70.0572 72.1008 69.255C72.2154 68.4528 72.0066 67.6378 71.5204 66.9895C68.959 63.5644 65.6339 60.7839 61.8095 58.8691C57.9851 56.9542 53.7668 55.9578 49.4898 55.959Z" fill="#639CFF"/>
</svg>
