<svg width="98" height="98" viewBox="0 0 98 98" fill="none" xmlns="http://www.w3.org/2000/svg">
<g clip-path="url(#clip0_18_1082)">
<path d="M49 94.9375C74.3706 94.9375 94.9375 74.3706 94.9375 49C94.9375 23.6294 74.3706 3.0625 49 3.0625C23.6294 3.0625 3.0625 23.6294 3.0625 49C3.0625 74.3706 23.6294 94.9375 49 94.9375Z" stroke="#639CFF" stroke-width="6.125" stroke-linecap="round" stroke-linejoin="round"/>
<path d="M76.5618 42.877C75.9289 41.0852 74.7557 39.5339 73.2045 38.4366C71.6528 37.3393 69.7994 36.75 67.899 36.75C65.9986 36.75 64.1452 37.3393 62.5935 38.4366C61.066 39.517 59.9055 41.0379 59.2656 42.7945" stroke="#639CFF" stroke-width="6.125" stroke-linecap="round" stroke-linejoin="round"/>
<path d="M21.4375 42.877C22.0705 41.0852 23.2435 39.5339 24.795 38.4366C26.3464 37.3393 28.2 36.75 30.1003 36.75C32.0006 36.75 33.8541 37.3393 35.4056 38.4366C36.9048 39.4969 38.0505 40.9811 38.6972 42.6965" stroke="#639CFF" stroke-width="6.125" stroke-linecap="round" stroke-linejoin="round"/>
<path d="M24.2881 61.25C26.5689 65.8531 30.0903 69.727 34.4553 72.4359C38.8203 75.1444 43.8553 76.5797 48.9921 76.5797C54.1293 76.5797 59.1641 75.1444 63.5292 72.4359C67.8653 69.745 71.3688 65.9046 73.6509 61.3415" stroke="#639CFF" stroke-width="6.125" stroke-linecap="round" stroke-linejoin="round"/>
</g>
<defs>
<clipPath id="clip0_18_1082">
<rect width="98" height="98" fill="white"/>
</clipPath>
</defs>
</svg>
