<svg width="50" height="50" viewBox="0 0 50 50" fill="none" xmlns="http://www.w3.org/2000/svg">
<g clip-path="url(#clip0_18_1206)">
<path d="M35.7805 19.8112V9.39007L32.9181 0.802734H16.2801L13.4177 9.39007V19.8112H0V26.52L3.35443 24.2837H7.82699L3.35443 27.6381H7.82699L12.2996 24.2837H16.7721L13.4177 27.6381H17.8903L21.2447 24.2837H25.7173L22.3628 27.6381H26.8354L30.1898 24.2837H34.6624L31.308 27.6381H35.7805L39.135 24.2837H43.6075L40.2531 27.6381H44.7257L49.1983 23.9595V19.8112H35.7805ZM29.6979 5.2753L30.447 7.51159H18.7512L19.5004 5.2753H29.6979ZM26.8354 19.8112V15.3386H22.3628V19.8112H17.8903V11.9842H31.308V19.8112H26.8354ZM10.0633 36.5833C10.0633 37.1764 10.2989 37.7452 10.7183 38.1646C11.1377 38.584 11.7065 38.8196 12.2996 38.8196C12.8927 38.8196 13.4615 38.584 13.8809 38.1646C14.3002 37.7452 14.5358 37.1764 14.5358 36.5833C14.5358 35.9902 14.3002 35.4214 13.8809 35.002C13.4615 34.5826 12.8927 34.347 12.2996 34.347C11.7065 34.347 11.1377 34.5826 10.7183 35.002C10.2989 35.4214 10.0633 35.9902 10.0633 36.5833ZM41.3713 45.5284C41.3713 46.1215 41.6069 46.6903 42.0263 47.1097C42.4456 47.5291 43.0144 47.7647 43.6075 47.7647C44.2006 47.7647 44.7695 47.5291 45.1888 47.1097C45.6082 46.6903 45.8438 46.1215 45.8438 45.5284C45.8438 44.9353 45.6082 44.3665 45.1888 43.9471C44.7695 43.5277 44.2006 43.2921 43.6075 43.2921C43.0144 43.2921 42.4456 43.5277 42.0263 43.9471C41.6069 44.3665 41.3713 44.9353 41.3713 45.5284ZM5.59071 44.9694C5.59071 45.4142 5.76742 45.8408 6.08196 46.1553C6.39649 46.4699 6.8231 46.6466 7.26792 46.6466C7.71275 46.6466 8.13935 46.4699 8.45389 46.1553C8.76843 45.8408 8.94514 45.4142 8.94514 44.9694C8.94514 44.5245 8.76843 44.0979 8.45389 43.7834C8.13935 43.4688 7.71275 43.2921 7.26792 43.2921C6.8231 43.2921 6.39649 43.4688 6.08196 43.7834C5.76742 44.0979 5.59071 44.5245 5.59071 44.9694ZM29.0717 45.5284C29.0717 45.825 29.1895 46.1094 29.3992 46.3191C29.6089 46.5288 29.8933 46.6466 30.1898 46.6466C30.4864 46.6466 30.7708 46.5288 30.9805 46.3191C31.1902 46.1094 31.308 45.825 31.308 45.5284C31.308 45.2319 31.1902 44.9475 30.9805 44.7378C30.7708 44.5281 30.4864 44.4103 30.1898 44.4103C29.8933 44.4103 29.6089 44.5281 29.3992 44.7378C29.1895 44.9475 29.0717 45.2319 29.0717 45.5284ZM23.481 33.7879C23.4809 34.0082 23.5243 34.2263 23.6086 34.4299C23.6928 34.6334 23.8164 34.8183 23.9721 34.9741C24.1279 35.1299 24.3128 35.2534 24.5163 35.3377C24.7198 35.422 24.9379 35.4654 25.1582 35.4654C25.3785 35.4654 25.5966 35.422 25.8001 35.3377C26.0036 35.2534 26.1885 35.1299 26.3443 34.9741C26.5 34.8183 26.6236 34.6334 26.7078 34.4299C26.7921 34.2263 26.8354 34.0082 26.8354 33.7879C26.8354 33.5677 26.7921 33.3495 26.7078 33.146C26.6236 32.9425 26.5 32.7576 26.3443 32.6018C26.1885 32.446 26.0036 32.3224 25.8001 32.2381C25.5966 32.1538 25.3785 32.1104 25.1582 32.1104C24.9379 32.1104 24.7198 32.1538 24.5163 32.2381C24.3128 32.3224 24.1279 32.446 23.9721 32.6018C23.8164 32.7576 23.6928 32.9425 23.6086 33.146C23.5243 33.3495 23.4809 33.5677 23.481 33.7879ZM45.8438 34.347C45.5473 34.347 45.2629 34.4648 45.0532 34.6745C44.8435 34.8842 44.7257 35.1686 44.7257 35.4651C44.7257 35.6863 44.7913 35.9025 44.9141 36.0864C45.037 36.2702 45.2116 36.4135 45.4159 36.4982C45.6202 36.5828 45.8451 36.6049 46.062 36.5618C46.2789 36.5187 46.4781 36.4122 46.6345 36.2558C46.7908 36.0994 46.8973 35.9002 46.9405 35.6833C46.9836 35.4664 46.9615 35.2416 46.8769 35.0373C46.7922 34.8329 46.6489 34.6583 46.465 34.5354C46.2812 34.4126 46.065 34.347 45.8438 34.347ZM4.47257 29.8744C4.32573 29.8744 4.18033 29.9034 4.04467 29.9595C3.90901 30.0157 3.78575 30.0981 3.68192 30.2019C3.57809 30.3058 3.49573 30.429 3.43954 30.5647C3.38335 30.7003 3.35443 30.8457 3.35443 30.9926C3.35443 31.2137 3.42 31.4299 3.54287 31.6138C3.66573 31.7977 3.84036 31.941 4.04467 32.0256C4.24899 32.1102 4.47381 32.1324 4.69071 32.0892C4.90761 32.0461 5.10684 31.9396 5.26321 31.7832C5.41959 31.6268 5.52608 31.4276 5.56923 31.2107C5.61237 30.9938 5.59023 30.769 5.5056 30.5647C5.42097 30.3604 5.27765 30.1857 5.09378 30.0629C4.9099 29.94 4.69372 29.8744 4.47257 29.8744ZM35.7805 30.6907L34.7407 32.2673C33.958 33.4637 31.3862 37.489 31.3862 39.4681C31.3862 40.6365 31.8504 41.757 32.6766 42.5832C33.5028 43.4094 34.6233 43.8736 35.7917 43.8736C36.9601 43.8736 38.0807 43.4094 38.9069 42.5832C39.7331 41.757 40.1972 40.6365 40.1972 39.4681C40.1972 37.5002 37.6031 33.4525 36.8428 32.2673L35.7805 30.6907ZM35.7805 41.3578C35.2764 41.3578 34.7929 41.1575 34.4365 40.801C34.08 40.4445 33.8797 39.961 33.8797 39.4569C34.2833 37.9799 34.9254 36.5787 35.7805 35.3086C36.6387 36.577 37.281 37.9787 37.6814 39.4569C37.6814 39.961 37.4811 40.4445 37.1246 40.801C36.7682 41.1575 36.2847 41.3578 35.7805 41.3578ZM20.6968 37.5449L19.6569 39.1215C18.9972 40.139 16.7945 43.594 16.7945 45.2824C16.7945 46.3204 17.2068 47.3158 17.9407 48.0497C18.6747 48.7836 19.6701 49.1959 20.708 49.1959C21.7459 49.1959 22.7413 48.7836 23.4753 48.0497C24.2092 47.3158 24.6215 46.3204 24.6215 45.2824C24.6215 43.5829 22.3852 40.1502 21.759 39.1215L20.6968 37.5449ZM20.6968 46.6913C20.3241 46.6884 19.9674 46.539 19.7038 46.2754C19.4402 46.0118 19.2909 45.6552 19.288 45.2824C19.5829 44.1795 20.0509 43.1304 20.6744 42.174C21.2891 43.1341 21.7635 44.177 22.0833 45.2713C22.0718 45.6381 21.9186 45.9863 21.6559 46.2427C21.3933 46.4991 21.0415 46.6439 20.6744 46.6466L20.6968 46.6913Z" fill="#A3C5FF"/>
</g>
<defs>
<clipPath id="clip0_18_1206">
<rect width="50" height="50" fill="white"/>
</clipPath>
</defs>
</svg>
