<svg width="48" height="48" viewBox="0 0 48 48" fill="none" xmlns="http://www.w3.org/2000/svg">
<g clip-path="url(#clip0_18_1146)">
<path d="M16.5 24V16.5H18C19.5907 16.4982 21.1158 15.8655 22.2407 14.7407C23.3655 13.6158 23.9982 12.0908 24 10.5V6H19.5C17.9641 6.00246 16.4884 6.59705 15.3798 7.66005C14.6029 6.24978 13.4621 5.0736 12.0762 4.25401C10.6904 3.43441 9.11009 3.00137 7.5 3H3V7.5C3.00262 9.88614 3.95167 12.1738 5.63893 13.8611C7.32619 15.5483 9.61386 16.4974 12 16.5H13.5V24H3V27H24V24H16.5ZM19.5 9H21V10.5C20.9992 11.2954 20.6829 12.058 20.1204 12.6204C19.558 13.1829 18.7954 13.4992 18 13.5H16.5V12C16.5008 11.2046 16.8171 10.442 17.3796 9.87956C17.942 9.31712 18.7046 9.00079 19.5 9ZM12 13.5C10.4092 13.4982 8.88416 12.8655 7.75933 11.7407C6.6345 10.6158 6.00179 9.09075 6 7.5V6H7.5C9.09075 6.00179 10.6158 6.6345 11.7407 7.75933C12.8655 8.88416 13.4982 10.4092 13.5 12V13.5H12Z" fill="#A3C5FF"/>
<path d="M24 31.5H3V34.5H24V31.5Z" fill="#A3C5FF"/>
<path d="M24 39H3V42H24V39Z" fill="#A3C5FF"/>
<path d="M37.5002 45C35.9275 45.0046 34.3934 44.5133 33.116 43.596C31.8386 42.6788 30.8827 41.3822 30.3844 39.8905C29.8861 38.3989 29.8706 36.7882 30.3402 35.2872C30.8098 33.7863 31.7406 32.4716 33.0002 31.53V22.5C33.0002 21.3065 33.4743 20.1619 34.3182 19.318C35.1621 18.4741 36.3067 18 37.5002 18C38.6937 18 39.8382 18.4741 40.6822 19.318C41.5261 20.1619 42.0002 21.3065 42.0002 22.5V31.53C43.2598 32.4716 44.1905 33.7863 44.6601 35.2872C45.1297 36.7882 45.1143 38.3989 44.6159 39.8905C44.1176 41.3822 43.1618 42.6788 41.8844 43.596C40.6069 44.5133 39.0728 45.0046 37.5002 45ZM37.5002 21C37.1025 21.0004 36.7212 21.1586 36.44 21.4398C36.1588 21.721 36.0006 22.1023 36.0002 22.5V33.195L35.2545 33.629C34.5701 34.0173 34.0009 34.5802 33.6049 35.2602C33.2089 35.9402 33.0002 36.7131 33.0002 37.5C33.0002 38.6935 33.4743 39.8381 34.3182 40.682C35.1621 41.5259 36.3067 42 37.5002 42C38.6937 42 39.8382 41.5259 40.6822 40.682C41.5261 39.8381 42.0002 38.6935 42.0002 37.5C42.0002 36.713 41.7916 35.94 41.3956 35.2599C40.9996 34.5798 40.4303 34.0168 39.7458 33.6283L39.0002 33.195V22.5C38.9997 22.1023 38.8416 21.721 38.5604 21.4398C38.2791 21.1586 37.8979 21.0004 37.5002 21Z" fill="#A3C5FF"/>
</g>
<defs>
<clipPath id="clip0_18_1146">
<rect width="48" height="48" fill="white"/>
</clipPath>
</defs>
</svg>
