<svg width="50" height="50" viewBox="0 0 50 50" fill="none" xmlns="http://www.w3.org/2000/svg">
<path d="M24.9997 38.9788C32.7202 38.9788 38.9788 32.7202 38.9788 24.9997C38.9788 17.2792 32.7202 11.0205 24.9997 11.0205C17.2792 11.0205 11.0205 17.2792 11.0205 24.9997C11.0205 32.7202 17.2792 38.9788 24.9997 38.9788Z" stroke="#A3C5FF" stroke-width="4" stroke-miterlimit="10"/>
<path d="M25 1.04199V7.04199" stroke="#A3C5FF" stroke-width="4" stroke-miterlimit="10"/>
<path d="M25 42.9795V48.9587" stroke="#A3C5FF" stroke-width="4" stroke-miterlimit="10"/>
<path d="M48.9587 25H42.9795" stroke="#A3C5FF" stroke-width="4" stroke-miterlimit="10"/>
<path d="M7.04199 25H1.04199" stroke="#A3C5FF" stroke-width="4" stroke-miterlimit="10"/>
<path d="M41.9372 8.0625L37.708 12.2917" stroke="#A3C5FF" stroke-width="4" stroke-miterlimit="10"/>
<path d="M12.2917 37.708L8.0625 41.9372" stroke="#A3C5FF" stroke-width="4" stroke-miterlimit="10"/>
<path d="M41.9372 41.9372L37.708 37.708" stroke="#A3C5FF" stroke-width="4" stroke-miterlimit="10"/>
<path d="M12.2917 12.2917L8.0625 8.0625" stroke="#A3C5FF" stroke-width="4" stroke-miterlimit="10"/>
<path d="M25 23L23.5 25H25V23Z" stroke="#A3C5FF" stroke-width="4" stroke-miterlimit="10"/>
<path d="M25 27L26.5 25H25V27Z" stroke="#A3C5FF" stroke-width="4" stroke-miterlimit="10"/>
</svg>
