<svg width="54" height="54" viewBox="0 0 54 54" fill="none" xmlns="http://www.w3.org/2000/svg">
<path d="M18 35.9995C16.7574 35.9995 15.75 37.0069 15.75 38.2495C15.75 39.4922 16.7574 40.4995 18 40.4995C19.2426 40.4995 20.25 39.4922 20.25 38.2495C20.25 37.0069 19.2426 35.9995 18 35.9995ZM18 35.9995L18.0159 27M18 38.2495L18.0159 38.2655M45 11.25C45 13.7353 42.9853 15.75 40.5 15.75C38.0146 15.75 36 13.7353 36 11.25C36 8.76472 38.0146 6.75 40.5 6.75C42.9853 6.75 45 8.76472 45 11.25ZM27 38.2495C27 43.2202 22.9705 47.2495 18 47.2495C13.0294 47.2495 9 43.2202 9 38.2495C9 35.9671 9.84969 33.883 11.25 32.2965V13.5C11.25 9.77209 14.2721 6.75 18 6.75C21.7279 6.75 24.75 9.77209 24.75 13.5V32.2965C26.1504 33.883 27 35.9671 27 38.2495Z" stroke="#A3C5FF" stroke-width="4.5" stroke-linecap="round" stroke-linejoin="round"/>
</svg>
