<svg id="SvgjsSvg1016" width="288" height="288" xmlns="http://www.w3.org/2000/svg" version="1.1" xmlns:xlink="http://www.w3.org/1999/xlink" xmlns:svgjs="http://svgjs.com/svgjs"><defs id="SvgjsDefs1017"></defs><g id="SvgjsG1018"><svg xmlns="http://www.w3.org/2000/svg" viewBox="0 0 1024 1024" width="288" height="288"><path d="M160 64q32 0 32 32v832q0 32-32 32t-32-32V96q0-32 32-32zm416 354.624 128-11.584V168.96l-128-11.52v261.12zm-64 5.824V151.552L320 134.08V160h-64V64l616.704 56.064A96 96 0 0 1 960 215.68v144.64a96 96 0 0 1-87.296 95.616L256 512V224h64v217.92l192-17.472zm256-23.232 98.88-8.96A32 32 0 0 0 896 360.32V215.68a32 32 0 0 0-29.12-31.872l-98.88-8.96v226.368z" fill="#a3c5ff" class="svgShape color000000-0 selectable"></path></svg></g></svg>